<svg version="1.1"
   xmlns="http://www.w3.org/2000/svg"
   xmlns:xlink="http://www.w3.org/1999/xlink"
   xmlns:a="http://ns.adobe.com/AdobeSVGViewerExtensions/3.0/"
   x="0px" y="0px"
   xml:space="preserve" class="climacon climacon_sun" width="100" height="100" viewBox="25 25 50 50">
  <style type="text/css">
/* VARIABLES */
/* Applies a stroke to the icons. Can use percentage for responsive */
.climacon_component-stroke {
  fill: #FFC415;
  stroke-width: 0%;
  stroke: black;
}

g, path, circle, rect {
  -webkit-animation-iteration-count: infinite;
          animation-iteration-count: infinite;
  -webkit-animation-timing-function: linear;
          animation-timing-function: linear;
  -webkit-transform-origin: 50% 50%;
          transform-origin: 50% 50%;
  -webkit-animation-duration: 18s;
          animation-duration: 18s;
  -webkit-animation-direction: normal;
          animation-direction: normal;
}

/* SUN */
.climacon_componentWrap-sun {
  -webkit-animation-name: rotate;
          animation-name: rotate;
}

.climacon_componentWrap_sunSpoke .climacon_component-stroke_sunSpoke {
  -webkit-animation-name: scale;
          animation-name: scale;
  -webkit-animation-direction: alternate;
          animation-direction: alternate;
  -webkit-animation-duration: 4.5s;
          animation-duration: 4.5s;
}


.climacon_iconWrap-sun .climacon_component-stroke_sunSpoke, .climacon_iconWrap-sunFill .climacon_component-stroke_sunSpoke {
  fill-opacity: 1;
  -webkit-animation-name: scale;
          animation-name: scale;
  -webkit-animation-duration: 3s;
          animation-duration: 3s;
  -webkit-animation-iteration-count: infinite;
          animation-iteration-count: infinite;
  -webkit-animation-delay: 0;
          animation-delay: 0;
  -webkit-animation-fill-mode: both;
          animation-fill-mode: both;
  -webkit-animation-direction: alternate;
          animation-direction: alternate;
}

.climacon_iconWrap-sun .climacon_component-stroke_sunSpoke:nth-child(even), .climacon_iconWrap-sunFill .climacon_component-stroke_sunSpoke:nth-child(even) {
  -webkit-animation-delay: 4.5s;
          animation-delay: 4.5s;
}

.climacon-iconWrap_sunFill .climacon_component-stroke_sunSpoke {
  fill-opacity: 1;
  -webkit-animation-name: scale;
          animation-name: scale;
  -webkit-animation-iteration-count: infinite;
          animation-iteration-count: infinite;
  -webkit-animation-delay: 0;
          animation-delay: 0;
  -webkit-animation-fill-mode: both;
          animation-fill-mode: both;
  -webkit-animation-direction: alternate;
          animation-direction: alternate;
}

.climacon-iconWrap_sunFill .climacon_component-stroke_sunSpoke:nth-child(even) {
  -webkit-animation-delay: 4.5s;
          animation-delay: 4.5s;
}

@keyframes rotate {
  0% {
    -webkit-transform: rotate(0);
            transform: rotate(0);
  }
  100% {
    -webkit-transform: rotate(360deg);
            transform: rotate(360deg);
  }
}

@keyframes scale {
  0% {
    -webkit-transform: scale(1, 1);
            transform: scale(1, 1);
  }
  100% {
    -webkit-transform: scale(0.5, 0.5);
            transform: scale(0.5, 0.5);
  }
}

  </style>
  <clipPath id="a">
    <path d="M0 0v100h100V0H0zm50 58c-4.416 0-8-3.583-8-8 0-4.418 3.583-8 8-8s8 3.582 8 8c0 4.417-3.582 8-8 8z"/>
  </clipPath>
<defs>
</defs>
  <g class="climacon_iconWrap climacon_iconWrap-sun climacon_componentWrap climacon_componentWrap-sun">
    <g class="climacon_componentWrap climacon_componentWrap-sunSpoke">
      <path d="M72.03 52h-3.998c-1.105 0-2-.897-2-2s.895-2 2-2h3.998c1.104 0 2 .896 2 2s-.894 2-2 2z" class="climacon_component climacon_component-stroke climacon_component-stroke_sunSpoke climacon_component-stroke_sunSpoke-east"/>
      <path d="M64.175 38.688c-.78.78-2.05.78-2.828 0-.78-.78-.78-2.047 0-2.828l2.828-2.828c.78-.78 2.047-.78 2.828 0 .78.78.78 2.047 0 2.828l-2.828 2.828z" class="climacon_component climacon_component-stroke climacon_component-stroke_sunSpoke climacon_component-stroke_sunSpoke-northEast"/>
      <path d="M50.034 34.002c-1.105 0-2-.896-2-2v-4c0-1.103.895-2 2-2 1.104 0 2 .897 2 2v4c0 1.104-.898 2-2 2z" class="climacon_component climacon_component-stroke climacon_component-stroke_sunSpoke climacon_component-stroke_sunSpoke-north"/>
      <path d="M35.893 38.688l-2.827-2.828c-.78-.78-.78-2.047 0-2.828.78-.78 2.047-.78 2.827 0l2.827 2.828c.78.78.78 2.047 0 2.828-.78.78-2.046.78-2.827 0z" class="climacon_component climacon_component-stroke climacon_component-stroke_sunSpoke climacon_component-stroke_sunSpoke-northWest"/>
      <path d="M34.034 50c0 1.104-.896 2-2 2h-4c-1.104 0-1.998-.897-1.998-2s.896-2 1.998-2h4c1.106 0 2 .896 2 2z" class="climacon_component climacon_component-stroke climacon_component-stroke_sunSpoke climacon_component-stroke_sunSpoke-west"/>
      <path d="M35.893 61.312c.78-.78 2.048-.78 2.827 0 .78.78.78 2.047 0 2.828l-2.827 2.827c-.78.78-2.047.78-2.827 0-.78-.78-.78-2.047 0-2.827l2.827-2.828z" class="climacon_component climacon_component-stroke climacon_component-stroke_sunSpoke climacon_component-stroke_sunSpoke-southWest"/>
      <path d="M50.034 65.998c1.104 0 2 .895 2 2v4c0 1.103-.896 2-2 2-1.105 0-2-.897-2-2v-4c0-1.105.895-2 2-2z" class="climacon_component climacon_component-stroke climacon_component-stroke_sunSpoke climacon_component-stroke_sunSpoke-south"/>
      <path d="M64.175 61.312l2.828 2.828c.78.78.78 2.047 0 2.827-.78.78-2.05.78-2.828 0l-2.828-2.827c-.78-.78-.78-2.048 0-2.828.78-.78 2.045-.78 2.828 0z" class="climacon_component climacon_component-stroke climacon_component-stroke_sunSpoke climacon_component-stroke_sunSpoke-southEast"/>
    </g>
    <g class="climacon_componentWrap climacon_componentWrap_sunBody" clip-path="url(#a)">
      <circle cx="50.034" cy="50" r="11.999" class="climacon_component climacon_component-stroke climacon_component-stroke_sunBody"/>
    </g>
  </g>
</svg>
